# xmcd
# 
# Track frame offsets:
#     150
#     15509
#     30287
#     39671
#     54305
#     70903
#     85641
#     112548
#     122278
#     140669
#     154835
#     172013
#     190216
#     205853
#     218495
#     240105
# 
# Disc length: 3797
# 
# Revision: 3
# Processed by: cddbd v1.5.2PL0 Copyright (c) Steve Scherf et al.
# Submitted via: fre:ac v1.0.31
# 
DISCID=bd0ed310
DTITLE=THE BLUE HEARTS - ALL TIME SINGLES  [Disc 1]
DYEAR=2010
DGENRE=Rock
TTITLE0=1985
TTITLE1=人にやさしく
TTITLE2=ハンマー
TTITLE3=リンダ　リンダ
TTITLE4=僕はここに立っているよ
TTITLE5=キスしてほしい（トゥー・トゥー・トゥー）
TTITLE6=チェインギャング
TTITLE7=ブルーハーツのテーマ
TTITLE8=シャララ
TTITLE9=チェルノブイリ
TTITLE10=TRAIN-TRAIN
TTITLE11=無言電話のブルース
TTITLE12=ラブレター
TTITLE13=電工石火
TTITLE14=青空
TTITLE15=平成のブルース
EXTD=
EXTT0=
EXTT1=
EXTT2=
EXTT3=
EXTT4=
EXTT5=
EXTT6=
EXTT7=
EXTT8=
EXTT9=
EXTT10=
EXTT11=
EXTT12=
EXTT13=
EXTT14=
EXTT15=
PLAYORDER=
